<svg xmlns="http://www.w3.org/2000/svg" width="179.935" height="38.8" viewBox="0 0 179.935 38.8">
  <g id="アートワーク_19" data-name="アートワーク 19" transform="translate(90.851 19.4)">
    <g id="グループ_12177" data-name="グループ 12177" transform="translate(-90.851 -19.4)">
      <path id="パス_52892" data-name="パス 52892" d="M733.928,82.01s-.123,11.871.009,23.672l-7.607-.022c.175-11.767.013-23.651.013-23.651S730.1,82.054,733.928,82.01Z" transform="translate(-651.473 -73.558)" fill="#006ab7"/>
      <path id="パス_52893" data-name="パス 52893" d="M1389.8,82.01s-.123,11.871.01,23.672l-7.606-.022c.175-11.767.013-23.651.013-23.651S1385.97,82.054,1389.8,82.01Z" transform="translate(-1239.747 -73.558)" fill="#006ab7"/>
      <path id="パス_52894" data-name="パス 52894" d="M1117.753,105.566s-3.943-.092-7.572-.022l.062-10.134c-4.558-.1-9.943,0-9.943,0l.044,10.158c-2.474-.091-7.6-.022-7.6-.022.266-12.3.068-23.666.068-23.666s3.8.072,7.542.015l-.062,9.491s5.09.138,9.958,0l-.064-9.489s4.052.1,7.578,0C1117.76,81.893,1117.639,93.219,1117.753,105.566Z" transform="translate(-980.119 -73.441)" fill="#006ab7"/>
      <path id="パス_52895" data-name="パス 52895" d="M1484.56,104.553s1.668-.063,4.314.022l4.226-12.39,2.016-6.665.129-1.443.136,1.443c.03.276,1.2,4.515,1.892,6.736l4.188,12.3s5.606-.117,10.032-.02c0,0-3.025-7.976-7.337-20.622a4.381,4.381,0,0,0-4.166-3.1l-3.323-.034A4.716,4.716,0,0,0,1491.8,83.9Z" transform="translate(-1331.557 -72.455)" fill="#006ab7"/>
      <path id="パス_52896" data-name="パス 52896" d="M1030.2,192.34" transform="translate(-924.025 -172.517)" fill="#006ab7"/>
      <path id="パス_52897" data-name="パス 52897" d="M463.042,96.946l1.468,3.278.343,1-.183-1-.3-4.557L464.362,81a24.878,24.878,0,0,0,4.041.011s-.063,10.1-.063,20.346a3.423,3.423,0,0,1-3.607,3.469h-3.254c-2.388,0-4.123-1.667-5.282-3.877l-6.788-12.169L447.942,85.5l-.343-1,.183,1,.3,4.557.008,14.668a24.855,24.855,0,0,0-4.04-.011s.062-10.1.062-20.346a3.423,3.423,0,0,1,3.607-3.469h3.25c2.388,0,4.122,1.667,5.282,3.877Z" transform="translate(-398.285 -72.562)" fill="#006ab7"/>
      <path id="パス_52898" data-name="パス 52898" d="M831.54,92.805c0,8.966,7.524,11.877,14.027,11.877,0,0,4.821.066,9.058-.1v-3.387c-6.929.288-7.936-.156-7.936-.156-3.086-.55-7.066-2.832-7.066-8.292h0c0-5.462,3.98-7.742,7.066-8.291,0,0,1.038-.428,7.936-.157V80.909c-4.249-.2-9.058-.1-9.058-.1-6.511,0-14.027,2.728-14.027,11.9Z" transform="translate(-745.839 -72.457)" fill="#006ab7"/>
      <path id="パス_52899" data-name="パス 52899" d="M8.977,30.814.216,38.8,0,38.617,6.789,27.811l-.061.025A17.015,17.015,0,0,1,21.492,2.38h0A16.963,16.963,0,0,1,34.045,7.911l-.016.045L42.736,0l.216.182L36.208,10.932h.044A17.01,17.01,0,0,1,8.962,30.891Zm1.316-1.12A15.223,15.223,0,0,0,36.724,19.4v0a15.162,15.162,0,0,0-1.553-6.707v-.092L21.507,34.374,17.988,22.7l.109-.2-7.882,7.188ZM7.828,26.161,21.483,4.426l3.559,11.646L25,16.218l7.777-7.111h-.05A15.222,15.222,0,0,0,6.28,19.389v0a15.162,15.162,0,0,0,1.546,6.7Z" fill="#006ab7"/>
    </g>
  </g>
</svg>
